<?xml version="1.0" encoding="UTF-8"?><svg id="Layer_2" xmlns="http://www.w3.org/2000/svg" viewBox="0 0 29.35 29.34"><defs><style>.cls-1{fill:#352c2c;}.cls-2{fill:none;stroke:#352c2c;stroke-miterlimit:10;}</style></defs><g id="icon"><g><path class="cls-1" d="M14.66,1.5c2.86,0,5.57,.9,7.86,2.59,.51,.38,1.01,.81,1.48,1.29,.47,.47,.9,.97,1.28,1.48,3.84,5.2,3.28,12.57-1.3,17.14-2.49,2.48-5.79,3.84-9.3,3.84s-6.84-1.37-9.32-3.87C.22,18.83,.22,10.47,5.37,5.34,7.85,2.86,11.15,1.5,14.66,1.5m0-1C11.04,.5,7.43,1.88,4.66,4.64c-5.54,5.52-5.55,14.5-.02,20.05,2.77,2.78,6.4,4.16,10.03,4.16s7.24-1.38,10.01-4.14c5.04-5.03,5.5-12.89,1.4-18.45-.41-.55-.88-1.09-1.38-1.59-.5-.5-1.04-.97-1.59-1.38C20.61,1.43,17.64,.5,14.66,.5h0Z"/><rect class="cls-2" x="5.73" y="21.08" width="3.26" height="1.75" transform="translate(17.71 1.24) rotate(45.08)"/><rect class="cls-2" x="7.27" y="18.67" width="4.86" height="1.91" transform="translate(30.43 26.67) rotate(135.08)"/><rect class="cls-2" x="8.24" y="16.42" width="7.59" height="1.75" transform="translate(15.78 -3.44) rotate(45.08)"/><path class="cls-2" d="M25.71,6.63l-11.56,11.53-2.97-2.97L22.74,3.66c.55,.41,1.09,.88,1.59,1.38,.5,.5,.97,1.04,1.38,1.59Z"/><line class="cls-2" x1="13.63" y1="15.71" x2="24.33" y2="5.04"/></g></g></svg>