<?xml version="1.0" encoding="UTF-8"?><svg id="Layer_2" xmlns="http://www.w3.org/2000/svg" viewBox="0 0 29.35 29.35"><defs><style>.cls-1{fill:#352c2c;}.cls-2{fill:none;stroke:#3d3234;stroke-miterlimit:10;}</style></defs><g id="icon"><g><g><path class="cls-2" d="M19.88,6.73c1.73,1.73,.14,6.15-3.57,9.85-3.71,3.71-8.12,5.31-9.85,3.57l5.86-7.82,7.57-5.6Z"/><line class="cls-2" x1="12.36" y1="12.36" x2="20.46" y2="20.46"/></g><path class="cls-1" d="M14.68,1.5c7.26,0,13.17,5.91,13.17,13.17s-5.91,13.17-13.17,13.17S1.5,21.94,1.5,14.67,7.41,1.5,14.68,1.5m0-1C6.84,.5,.5,6.85,.5,14.67s6.34,14.17,14.18,14.17,14.17-6.35,14.17-14.17S22.5,.5,14.68,.5h0Z"/></g></g></svg>