<?xml version="1.0" encoding="UTF-8"?><svg id="Layer_2" xmlns="http://www.w3.org/2000/svg" viewBox="0 0 29.35 29.57"><defs><style>.cls-1{fill:#352c2c;}.cls-2{fill:none;stroke:#352c2c;stroke-miterlimit:10;}</style></defs><g id="icon"><g><g><path class="cls-2" d="M21.44,26.65c-.28,.1-.57,.23-.84,.4-2.38-3.08-5.2-6.42-8.48-9.71-3.23-3.23-6.52-6.02-9.55-8.37,.17-.33,.28-.67,.36-1.01,.1-.14,.19-.28,.27-.42,3.22,2.36,6.71,5.24,10.09,8.63,3.41,3.41,6.27,6.9,8.64,10.13-.16,.1-.32,.21-.48,.34Z"/><line class="cls-2" x1="11.3" y1="14.26" x2="10.23" y2="15.51"/><line class="cls-2" x1="15.77" y1="18.77" x2="14.54" y2="19.86"/><path class="cls-2" d="M1.4,12.06c5.15,5.38,10.17,10.87,15.43,16.14"/><line class="cls-2" x1="26.86" y1="21.09" x2="14.38" y2="8.62"/><line class="cls-2" x1="15.09" y1="9.32" x2="12.45" y2="9.32"/><line class="cls-2" x1="15.09" y1="9.32" x2="15.09" y2="6.68"/><line class="cls-2" x1="16.86" y1="11.1" x2="14.22" y2="11.1"/><line class="cls-2" x1="16.86" y1="11.1" x2="16.86" y2="8.45"/><line class="cls-2" x1="18.85" y1="13.08" x2="16.21" y2="13.08"/><line class="cls-2" x1="18.85" y1="13.08" x2="18.85" y2="10.44"/></g><path class="cls-1" d="M14.67,1.5c3.53,0,6.84,1.37,9.33,3.87,3.17,3.18,4.5,7.71,3.54,12.11-.98,4.52-4.21,8.12-8.86,9.87-1.28,.48-2.62,.72-4,.72s-2.7-.24-3.97-.71c-4.67-1.73-7.92-5.33-8.91-9.87-.96-4.42,.37-8.95,3.57-12.14C7.86,2.87,11.16,1.5,14.67,1.5m0-1C11.05,.5,7.43,1.88,4.66,4.64-2.38,11.67-.48,24.27,10.36,28.3c1.39,.51,2.85,.77,4.32,.77s2.96-.26,4.35-.79c10.79-4.05,12.68-16.6,5.68-23.62C21.94,1.89,18.31,.5,14.67,.5h0Z"/></g></g></svg>