<?xml version="1.0" encoding="UTF-8"?><svg id="Layer_2" xmlns="http://www.w3.org/2000/svg" viewBox="0 0 29.35 29.35"><defs><style>.cls-1{fill:#352c2c;}.cls-2{fill:none;stroke:#352c2c;stroke-miterlimit:10;}</style></defs><g id="icon"><g><path class="cls-1" d="M14.67,1.5c3.53,0,6.84,1.38,9.33,3.87,2.48,2.49,3.85,5.8,3.84,9.32,0,3.52-1.38,6.82-3.87,9.31-2.49,2.48-5.79,3.85-9.3,3.85s-6.84-1.37-9.32-3.87c-2.49-2.49-3.85-5.8-3.85-9.32,0-3.52,1.38-6.82,3.87-9.31C7.86,2.87,11.16,1.5,14.67,1.5m0-1c-3.62,0-7.24,1.38-10.01,4.14-5.54,5.52-5.56,14.5-.02,20.05,2.77,2.77,6.4,4.16,10.03,4.16s7.24-1.38,10.01-4.14c5.54-5.52,5.56-14.5,.03-20.04C21.94,1.89,18.31,.5,14.67,.5h0Z"/><g><rect class="cls-2" x="6.11" y="20.71" width="3.26" height="1.75" transform="translate(17.56 .87) rotate(45.08)"/><rect class="cls-2" x="7.65" y="18.3" width="4.86" height="1.91" transform="translate(30.81 25.78) rotate(135.08)"/><rect class="cls-2" x="9.64" y="16.05" width="5.55" height="1.75" transform="translate(15.63 -3.82) rotate(45.08)"/><path class="cls-2" d="M14.52,17.79l-2.97-2.97,7-6.98,1.59-.49c1.15-.36,2.23,.72,1.87,1.88l-.5,1.59-7,6.98Z"/><line class="cls-2" x1="19.2" y1="10.16" x2="14" y2="15.34"/></g></g></g></svg>