<?xml version="1.0" encoding="UTF-8"?><svg id="Layer_2" xmlns="http://www.w3.org/2000/svg" viewBox="0 0 29.35 29.35"><defs><style>.cls-1{fill:none;fill-rule:evenodd;stroke:#352c2c;stroke-miterlimit:10;}.cls-2{fill:#352c2c;}</style></defs><g id="icon"><g><path class="cls-2" d="M14.68,1.5c7.26,0,13.17,5.91,13.17,13.17s-5.91,13.17-13.17,13.17S1.5,21.94,1.5,14.67,7.41,1.5,14.68,1.5m0-1C6.84,.5,.5,6.85,.5,14.67s6.34,14.17,14.18,14.17,14.17-6.35,14.17-14.17S22.5,.5,14.68,.5h0Z"/><path class="cls-1" d="M23.69,11.45v4.47c0,1.62-1.29,2.95-2.87,2.95h-.16l-2.86,2.94-2.86-2.94h-5.19c-1.58,0-2.87-1.32-2.87-2.95v-4.47c0-1.62,1.29-2.95,2.87-2.95h11.07c1.58,0,2.87,1.32,2.87,2.95Z"/></g></g></svg>