<?xml version="1.0" encoding="UTF-8"?><svg id="Layer_2" xmlns="http://www.w3.org/2000/svg" viewBox="0 0 28.35 28.35"><defs><style>.cls-1{font-family:FuturaPT-Book, 'Futura PT';font-size:12px;}.cls-1,.cls-2{fill:#352c2c;}</style></defs><g id="icon"><text class="cls-1" transform="translate(7.95 18.55)"><tspan x="0" y="0">6h</tspan></text><path class="cls-2" d="M22.68,2c2.02,0,3.67,1.65,3.67,3.67V22.68c0,2.02-1.65,3.67-3.67,3.67H5.67c-2.02,0-3.67-1.65-3.67-3.67V5.67c0-2.02,1.65-3.67,3.67-3.67H22.68m0-2H5.67C2.54,0,0,2.54,0,5.67V22.68c0,3.13,2.54,5.67,5.67,5.67H22.68c3.13,0,5.67-2.54,5.67-5.67V5.67c0-3.13-2.54-5.67-5.67-5.67h0Z"/></g></svg>