<?xml version="1.0" encoding="UTF-8"?><svg id="Layer_2" xmlns="http://www.w3.org/2000/svg" viewBox="0 0 55.4 274.32"><defs><style>.cls-1{fill:#352c2c;fill-rule:evenodd;}</style></defs><g id="icon"><path class="cls-1" d="M55.32,61.36c-.25-2.54-.9-3.46-2.07-2.9-2.14,1.02-4.29,1.47-6.48,1.19-1.63-.2-3.27-.28-4.9-.42-.83-.07-1.65-.15-2.48-.2-1.23-.08-2.45-.14-3.68-.2-.14-.01-.29-.03-.43-.04-1.19-.04-2.38-.14-3.56-.07,0-.25,0-.49,0-.74-.07-1.68-.3-3.89-.34-5.37-.04-1.39-.08-2.77-.11-4.16-.02-.87,0-1.74,0-2.61-.02-1.23-.1-2.46-.08-3.69,.02-1.12,.13-2.25,.19-3.37,.05-1,.14-2,.54-2.96,.14-.33,.17-.74,.07-1.08-.2-.73-.51-1.41-.52-2.19-.02-1.07-.25-6.26-.3-7.33-.08-1.83-.1-3.66-.12-5.48,0-.71,.06-1.43,.1-2.14,.04-.71-.01-5.58-.5-6.16-.05-.06-.12-.12-.18-.17,.22-2.49,.94-4.95,2.17-7.38,.63-1.26,.68-2.48-1.9-3.29-.99-.31-2.26-.41-3.39-.6h-.35c-.05,.04-.1,.11-.17,.12-4.21,.42-5.73,1.5-4.8,3.43,1.19,2.49,1.66,4.99,1.85,7.52-.19,.11-.35,.24-.47,.38-.35,.41,.15,1.09,.24,1.63,.09,.52,.23,1.04,.29,1.57,.06,.48,.05,.96,.07,1.44,0,.07-.01,.15-.03,.23-.06,.26-.39,.35-.45,.7-.1,.57,.12,1.09,.11,1.64-.02,1.41-.01,2.82,0,4.23,0,.23,.05,.45,.04,.68-.02,.71,0,1.42-.09,2.12-.1,.72,.25,5.57-.15,6.3-.16,.28-.05,.66-.12,.99-.07,.35-.23,.68-.32,1.03-.12,.44-.43,.86-.19,1.36,.17,.36,.27,.77,.32,1.16,.06,.48-.11,1.01,.09,1.43,.29,.6,.24,1.2,.28,1.8,.02,.3,.11,.59,.11,.88,.02,.8,0,1.6,.02,2.4,.02,.84,.09,1.68,.1,2.52,.01,.92-.08,5.99-.1,6.93-.02,.62,.01,1.25-.02,1.88-.04,.74-.16,1.48-.19,2.22-.03,.73-.02,1.45-.01,2.18-.27-.06-.55-.13-.82-.11-1.38,.1-2.76,.26-4.14,.39-1.56,.15-3.13,.29-4.69,.41-1.91,.14-3.83,.31-5.74,.39-.87,.04-1.75-.06-2.62-.2-.99-.18-1.96-.58-2.95-.71-.64-.08-1.36-.62-1.91,.51-.24,.48-.36,1.21-.54,1.84v1.82c.34,1.74,.96,2.46,1.83,2.22,.37-.1,.73-.32,1.11-.44,1.09-.33,2.17-.84,3.27-.93,2.5-.19,5.01-.26,7.52-.21,1.77,.05,3.53,.35,5.29,.59,.09,.01,.18,.03,.29,.04,.29,3.58,.6,7.06,.77,10.53,.22,4.55,.31,9.12,.32,13.68,.04,17.65,0,35.29,.03,52.94,0,3.87,.24,7.74,.25,11.61,0,3.86-.24,7.73-.22,11.59,.02,5.62,.23,11.24,.26,16.87,.05,8.14,.05,16.28,0,24.42-.03,5.91-.22,11.83-.25,17.74-.05,8.43-.24,16.86,.04,25.27,.15,4.3,.95,8.63,1.94,12.83,.81,3.45,2.32,6.74,3.56,10.08,.31,.83,.8,1.61,1.2,2.41h.62c3.39-5.65,5.24-11.86,6.43-18.27,.44-2.39,.65-4.85,.65-7.28,.04-50.91,.01-101.82,.04-152.73,0-7.91,.09-15.82,.34-23.72,.09-2.67,.48-5.33,.85-8.1,.4-.04,.79-.08,1.19-.12,1.51-.14,3.01-.31,4.52-.4,1.91-.11,3.83-.2,5.74-.2s3.68,.45,5.48,1.36c.76,.38,1.5,.41,1.99-1.15,.19-.59,.25-1.36,.36-2.04v-.21s-.07-.06-.07-.1Z"/></g></svg>